<svg width="24" height="23" viewBox="0 0 24 23" fill="none" xmlns="http://www.w3.org/2000/svg">
<path d="M0 5.52087V18.4292C0 19.1792 0.420833 19.8875 1.125 20.15C4.75 21.5042 8.375 20.5792 12 19.6542C15.325 18.8084 18.65 17.9584 21.9708 18.8667C22.9292 19.1292 24 18.4709 24 17.475V4.57087C24 3.82087 23.5792 3.11253 22.875 2.85003C19.25 1.49587 15.625 2.42087 12 3.34587C8.675 4.1917 5.35 5.03753 2.02917 4.1292C1.06667 3.8667 0 4.52503 0 5.52087ZM12 15.5C10.1583 15.5 8.66667 13.7084 8.66667 11.5C8.66667 9.2917 10.1583 7.50003 12 7.50003C13.8417 7.50003 15.3333 9.2917 15.3333 11.5C15.3333 13.7084 13.8417 15.5 12 15.5ZM2.66667 15.5C4.1375 15.5 5.33333 16.6959 5.33333 18.1667H2.66667V15.5ZM5.33333 6.83337C5.33333 8.3042 4.1375 9.50003 2.66667 9.50003V6.83337H5.33333ZM21.3333 13.5V16.1667H18.6667C18.6667 14.6959 19.8625 13.5 21.3333 13.5ZM18.6667 4.83337H21.3333V7.50003C19.8625 7.50003 18.6667 6.3042 18.6667 4.83337Z" fill="#10496C"/>
</svg>
