<svg width="24" height="23" viewBox="0 0 24 23" fill="none" xmlns="http://www.w3.org/2000/svg">
<path d="M0 5.5208V18.4291C0 19.1791 0.420833 19.8875 1.125 20.15C4.75 21.5041 8.375 20.5791 12 19.6541C15.325 18.8083 18.65 17.9583 21.9708 18.8666C22.9292 19.1291 24 18.4708 24 17.475V4.5708C24 3.8208 23.5792 3.11247 22.875 2.84997C19.25 1.4958 15.625 2.4208 12 3.3458C8.675 4.19164 5.35 5.03747 2.02917 4.12914C1.06667 3.86664 0 4.52497 0 5.5208ZM12 15.5C10.1583 15.5 8.66667 13.7083 8.66667 11.5C8.66667 9.29164 10.1583 7.49997 12 7.49997C13.8417 7.49997 15.3333 9.29164 15.3333 11.5C15.3333 13.7083 13.8417 15.5 12 15.5ZM2.66667 15.5C4.1375 15.5 5.33333 16.6958 5.33333 18.1666H2.66667V15.5ZM5.33333 6.8333C5.33333 8.30414 4.1375 9.49997 2.66667 9.49997V6.8333H5.33333ZM21.3333 13.5V16.1666H18.6667C18.6667 14.6958 19.8625 13.5 21.3333 13.5ZM18.6667 4.8333H21.3333V7.49997C19.8625 7.49997 18.6667 6.30414 18.6667 4.8333Z" fill="white"/>
</svg>
