<svg width="24" height="24" viewBox="0 0 24 24" fill="none" xmlns="http://www.w3.org/2000/svg">
<path d="M20.9999 6.72998H20.9199C15.6299 6.19998 10.3499 5.99998 5.11992 6.52998L3.07992 6.72998C2.98068 6.74033 2.88037 6.73091 2.7848 6.70226C2.68923 6.67361 2.60028 6.62631 2.5231 6.56308C2.44592 6.49984 2.38204 6.42194 2.33515 6.33387C2.28826 6.2458 2.25929 6.14931 2.24992 6.04998C2.20992 5.62998 2.50992 5.26998 2.91992 5.22998L4.95992 5.02998C10.2799 4.48998 15.6699 4.69998 21.0699 5.22998C21.4799 5.26998 21.7799 5.63998 21.7399 6.04998C21.7248 6.23566 21.6402 6.40881 21.5031 6.53486C21.3659 6.66091 21.1862 6.73059 20.9999 6.72998Z" fill="white"/>
<path d="M8.4999 5.72C8.4599 5.72 8.4199 5.72 8.3699 5.71C8.17588 5.67504 8.00332 5.56538 7.88926 5.40458C7.77521 5.24378 7.72876 5.04467 7.7599 4.85L7.9799 3.54C8.1399 2.58 8.3599 1.25 10.6899 1.25H13.3099C15.6499 1.25 15.8699 2.63 16.0199 3.55L16.2399 4.85C16.3099 5.26 16.0299 5.65 15.6299 5.71C15.2199 5.78 14.8299 5.5 14.7699 5.1L14.5499 3.8C14.4099 2.93 14.3799 2.76 13.3199 2.76H10.6999C9.6399 2.76 9.6199 2.9 9.4699 3.79L9.2399 5.09C9.21141 5.26576 9.12132 5.42565 8.98574 5.54107C8.85017 5.6565 8.67795 5.71992 8.4999 5.72ZM15.2099 22.752H8.7899C5.2999 22.752 5.1599 20.822 5.0499 19.262L4.3999 9.192C4.3699 8.782 4.6899 8.422 5.0999 8.392C5.5199 8.372 5.8699 8.682 5.8999 9.092L6.5499 19.162C6.6599 20.682 6.6999 21.252 8.7899 21.252H15.2099C17.3099 21.252 17.3499 20.682 17.4499 19.162L18.0999 9.092C18.1299 8.682 18.4899 8.372 18.8999 8.392C19.3099 8.422 19.6299 8.772 19.5999 9.192L18.9499 19.262C18.8399 20.822 18.6999 22.752 15.2099 22.752Z" fill="white"/>
<path d="M13.66 17.25H10.33C9.92 17.25 9.58 16.91 9.58 16.5C9.58 16.09 9.92 15.75 10.33 15.75H13.66C14.07 15.75 14.41 16.09 14.41 16.5C14.41 16.91 14.07 17.25 13.66 17.25ZM14.5 13.25H9.5C9.09 13.25 8.75 12.91 8.75 12.5C8.75 12.09 9.09 11.75 9.5 11.75H14.5C14.91 11.75 15.25 12.09 15.25 12.5C15.25 12.91 14.91 13.25 14.5 13.25Z" fill="white"/>
</svg>
