<svg width="24" height="25" viewBox="0 0 24 25" fill="none" xmlns="http://www.w3.org/2000/svg">
<g clip-path="url(#clip0_1_1703)">
<path d="M19.35 4.25C18.1215 3.32863 17.6005 2.36796 17.3845 1.64964C17.208 1.06271 16.6973 0.5 16.0844 0.5H4C3.44771 0.5 3 0.947715 3 1.5V19.25C3 22.1 6.15 24.5 9 24.5H20C20.5523 24.5 21 24.0523 21 23.5V5.78078C21 5.32191 20.6854 4.92613 20.2572 4.76114C19.9226 4.63223 19.557 4.45698 19.35 4.25ZM10.5 9.95C9.15 9.5 7.05 8.75 7.05 7.1C7.2 5.9 9 5 9 4.7V3.5H10.5V4.55C12 4.7 13.2 5.15 13.35 5.15L12.9 6.5C12.9 6.5 11.85 6.05 10.65 6.05C9.6 6.05 9 6.5 8.85 7.25C8.85 7.7 9.6 8.15 10.8 8.6C13.05 9.35 13.65 10.25 13.65 11.45C13.65 12.5 13.5 13.85 10.5 14.15V15.5H9V14.3C9 14.15 6.9 13.55 6.75 13.55L7.5 12.2C7.5 12.2 9.15 12.95 10.5 12.8C11.85 12.65 12.45 11.9 12.45 11.3C12.6 10.85 11.85 10.4 10.5 9.95ZM19.5 22C19.5 22.5523 19.0523 23 18.5 23H9C7.5 23 6.3 22.1 6 21.05C5.85 20.6 6 20 6.6 20H15.5C16.0523 20 16.5 19.5523 16.5 19V6.31619C16.5 5.5389 17.3544 5.04871 18.0278 5.43687C18.8747 5.92501 19.5 6.3063 19.5 6.5V22Z" fill="#10496C"/>
</g>
<defs>
<clipPath id="clip0_1_1703">
<rect width="24" height="24" fill="white" transform="translate(0 0.5)"/>
</clipPath>
</defs>
</svg>
