<svg width="75" height="75" viewBox="0 0 75 75" fill="none" xmlns="http://www.w3.org/2000/svg">
<circle cx="37.3489" cy="37.5" r="37" fill="#E0F8E9"/>
<path d="M52.6064 54.8583C52.6064 48.1987 45.9812 42.8125 37.8244 42.8125C29.6677 42.8125 23.0425 48.1987 23.0425 54.8583M37.8244 37.65C40.1064 37.65 42.2949 36.7435 43.9085 35.1299C45.5221 33.5163 46.4286 31.3278 46.4286 29.0458C46.4286 26.7638 45.5221 24.5753 43.9085 22.9618C42.2949 21.3482 40.1064 20.4417 37.8244 20.4417C35.5425 20.4417 33.354 21.3482 31.7404 22.9618C30.1268 24.5753 29.2203 26.7638 29.2203 29.0458C29.2203 31.3278 30.1268 33.5163 31.7404 35.1299C33.354 36.7435 35.5425 37.65 37.8244 37.65Z" stroke="#2ECA6A" stroke-width="4" stroke-linecap="round" stroke-linejoin="round"/>
</svg>
