<svg width="74" height="74" viewBox="0 0 74 74" fill="none" xmlns="http://www.w3.org/2000/svg">
<circle cx="37" cy="37" r="37" fill="#F6F6FE"/>
<path d="M54 35.3V45.5C54 52.3 52.3 54 45.5 54H28.5C21.7 54 20 52.3 20 45.5V28.5C20 21.7 21.7 20 28.5 20H31.05C33.6 20 34.161 20.748 35.13 22.04L37.68 25.44C38.326 26.29 38.7 26.8 40.4 26.8H45.5C52.3 26.8 54 28.5 54 35.3Z" stroke="#4154F1" stroke-width="4" stroke-miterlimit="10"/>
<path d="M30 20H45.75C49.25 20 51 21.5982 51 24.7945V27" stroke="#4154F1" stroke-width="4" stroke-miterlimit="10" stroke-linecap="round" stroke-linejoin="round"/>
</svg>
