<svg width="74" height="74" viewBox="0 0 74 74" fill="none" xmlns="http://www.w3.org/2000/svg">
<circle cx="37" cy="37" r="37" fill="#FFECDF"/>
<g clip-path="url(#clip0_434_1637)">
<path d="M48.2547 40.5278C47.5319 41.2334 47.1189 42.2487 47.2222 43.3329C47.3771 45.1915 49.0808 46.551 50.9394 46.551H54.2091V48.5989C54.2091 52.1613 51.3008 55.0696 47.7385 55.0696H27.9822C24.4198 55.0696 21.5115 52.1613 21.5115 48.5989V37.0171C21.5115 33.4548 24.4198 30.5464 27.9822 30.5464H47.7385C51.3008 30.5464 54.2091 33.4548 54.2091 37.0171V39.4952H50.7329C49.7691 39.4952 48.8915 39.8738 48.2547 40.5278Z" stroke="#FF771D" stroke-width="4" stroke-linecap="round" stroke-linejoin="round"/>
<path d="M21.5115 38.566V30.7014C21.5115 28.6535 22.7678 26.8293 24.678 26.1065L38.3422 20.9437C38.8373 20.7571 39.3702 20.6935 39.8953 20.7582C40.4204 20.823 40.922 21.0142 41.3569 21.3154C41.7919 21.6167 42.1472 22.0189 42.3925 22.4877C42.6377 22.9566 42.7655 23.4779 42.765 24.0069V30.5465M29.2557 37.8604H41.3022M56.0316 41.2507V44.7958C56.0316 45.7423 55.2744 46.5167 54.3107 46.5511H50.9377C49.0791 46.5511 47.3753 45.1916 47.2205 43.333C47.1172 42.2488 47.5302 41.2335 48.253 40.5279C48.8898 39.8739 49.7674 39.4953 50.7312 39.4953H54.3107C55.2744 39.5297 56.0316 40.3042 56.0316 41.2507Z" stroke="#FF771D" stroke-width="4" stroke-linecap="round" stroke-linejoin="round"/>
</g>
<defs>
<clipPath id="clip0_434_1637">
<rect width="41.3023" height="41.3023" fill="white" transform="translate(17.2092 17.2092)"/>
</clipPath>
</defs>
</svg>
