<svg width="74" height="74" viewBox="0 0 74 74" fill="none" xmlns="http://www.w3.org/2000/svg">
<circle cx="37" cy="37" r="37" fill="#FFCAF9"/>
<g clip-path="url(#clip0_434_1647)">
<path d="M46.5464 28.1318C46.1334 28.063 45.7032 28.0457 45.2558 28.0457H28.0474C27.5656 28.0457 27.101 28.0802 26.6536 28.149C26.8945 27.6672 27.2386 27.2197 27.6516 26.8067L33.2444 21.1968C34.3801 20.0724 35.9138 19.4417 37.512 19.4417C39.1103 19.4417 40.6439 20.0724 41.7797 21.1968L44.7911 24.2427C45.8925 25.3268 46.4776 26.7035 46.5464 28.1318Z" stroke="#9A208C" stroke-width="4" stroke-linecap="round" stroke-linejoin="round"/>
<path d="M27.1715 48.6614H22.0435M24.604 46.149V51.2943M31.4874 48.6958C31.4874 49.9865 31.126 51.2082 30.4893 52.2407C29.8826 53.2603 29.0209 54.1043 27.989 54.6897C26.9571 55.2751 25.7905 55.5816 24.604 55.5792C23.4176 55.5816 22.251 55.2751 21.2191 54.6897C20.1872 54.1043 19.3254 53.2603 18.7188 52.2407C18.0637 51.1746 17.7182 49.9472 17.7207 48.6958C17.7207 44.8928 20.801 41.8125 24.604 41.8125C28.4071 41.8125 31.4874 44.8928 31.4874 48.6958Z" stroke="#9A208C" stroke-width="4" stroke-miterlimit="10" stroke-linecap="round" stroke-linejoin="round"/>
<path d="M53.8583 36.6501V45.2542C53.8583 50.4167 50.4167 53.8584 45.2542 53.8584H29.1299C29.6634 53.411 30.128 52.8603 30.4894 52.2408C31.1261 51.2083 31.4875 49.9865 31.4875 48.6959C31.4875 44.8929 28.4072 41.8126 24.6042 41.8126C22.5392 41.8126 20.6979 42.7246 19.4417 44.1529V36.6501C19.4417 31.9694 22.2638 28.6998 26.6519 28.1491C27.0994 28.0803 27.564 28.0459 28.0458 28.0459H45.2542C45.7016 28.0459 46.1318 28.0631 46.5448 28.1319C50.9845 28.6482 53.8583 31.935 53.8583 36.6501Z" stroke="#9A208C" stroke-width="4" stroke-linecap="round" stroke-linejoin="round"/>
<path d="M53.8583 37.5105H48.6958C46.8029 37.5105 45.2542 39.0592 45.2542 40.9522C45.2542 42.8451 46.8029 44.3938 48.6958 44.3938H53.8583" stroke="#9A208C" stroke-width="4" stroke-linecap="round" stroke-linejoin="round"/>
</g>
<defs>
<clipPath id="clip0_434_1647">
<rect width="41.3" height="41.3" fill="white" transform="translate(16 16)"/>
</clipPath>
</defs>
</svg>
