<svg width="24" height="24" viewBox="0 0 24 24" fill="none" xmlns="http://www.w3.org/2000/svg">
<mask id="path-1-inside-1_521_374" fill="white">
<path d="M12 5.5C12.9283 5.5 13.8185 5.86875 14.4749 6.52513C15.1313 7.1815 15.5 8.07174 15.5 9C15.5 9.92826 15.1313 10.8185 14.4749 11.4749C13.8185 12.1313 12.9283 12.5 12 12.5C11.0717 12.5 10.1815 12.1313 9.52513 11.4749C8.86875 10.8185 8.5 9.92826 8.5 9C8.5 8.07174 8.86875 7.1815 9.52513 6.52513C10.1815 5.86875 11.0717 5.5 12 5.5M5 8C5.56 8 6.08 8.15 6.53 8.42C6.38 9.85 6.8 11.27 7.66 12.38C7.16 13.34 6.16 14 5 14C4.20435 14 3.44129 13.6839 2.87868 13.1213C2.31607 12.5587 2 11.7956 2 11C2 10.2044 2.31607 9.44129 2.87868 8.87868C3.44129 8.31607 4.20435 8 5 8M19 8C19.7956 8 20.5587 8.31607 21.1213 8.87868C21.6839 9.44129 22 10.2044 22 11C22 11.7956 21.6839 12.5587 21.1213 13.1213C20.5587 13.6839 19.7956 14 19 14C17.84 14 16.84 13.34 16.34 12.38C17.2119 11.2544 17.6166 9.8362 17.47 8.42C17.92 8.15 18.44 8 19 8M5.5 18.25C5.5 16.18 8.41 14.5 12 14.5C15.59 14.5 18.5 16.18 18.5 18.25V20H5.5V18.25ZM0 20V18.5C0 17.11 1.89 15.94 4.45 15.6C3.86 16.28 3.5 17.22 3.5 18.25V20H0ZM24 20H20.5V18.25C20.5 17.22 20.14 16.28 19.55 15.6C22.11 15.94 24 17.11 24 18.5V20Z"/>
</mask>
<path d="M15.5 9H17.5H15.5ZM12 12.5V14.5V12.5ZM6.53 8.42L8.51909 8.62865L8.65207 7.36086L7.55899 6.70501L6.53 8.42ZM7.66 12.38L9.43383 13.3039L10.0256 12.1677L9.241 11.1551L7.66 12.38ZM5 14V16V14ZM2 11H0H2ZM22 11H24H22ZM19 14V12V14ZM16.34 12.38L14.7589 11.1553L13.9745 12.1679L14.5662 13.3039L16.34 12.38ZM17.47 8.42L16.441 6.70501L15.3496 7.35986L15.4806 8.62589L17.47 8.42ZM18.5 20V22H20.5V20H18.5ZM5.5 20H3.5V22H5.5V20ZM0 20H-2V22H0V20ZM4.45 15.6L5.96064 16.9107L9.42127 12.9222L4.18669 13.6174L4.45 15.6ZM3.5 20V22H5.5V20H3.5ZM24 20V22H26V20H24ZM20.5 20H18.5V22H20.5V20ZM19.55 15.6L19.8133 13.6174L14.5787 12.9222L18.0394 16.9107L19.55 15.6ZM12 7.5C12.3978 7.5 12.7794 7.65804 13.0607 7.93934L15.8891 5.11091C14.8576 4.07946 13.4587 3.5 12 3.5V7.5ZM13.0607 7.93934C13.342 8.22064 13.5 8.60218 13.5 9H17.5C17.5 7.54131 16.9205 6.14236 15.8891 5.11091L13.0607 7.93934ZM13.5 9C13.5 9.39782 13.342 9.77936 13.0607 10.0607L15.8891 12.8891C16.9205 11.8576 17.5 10.4587 17.5 9H13.5ZM13.0607 10.0607C12.7794 10.342 12.3978 10.5 12 10.5V14.5C13.4587 14.5 14.8576 13.9205 15.8891 12.8891L13.0607 10.0607ZM12 10.5C11.6022 10.5 11.2206 10.342 10.9393 10.0607L8.11091 12.8891C9.14236 13.9205 10.5413 14.5 12 14.5V10.5ZM10.9393 10.0607C10.658 9.77936 10.5 9.39782 10.5 9H6.5C6.5 10.4587 7.07946 11.8576 8.11091 12.8891L10.9393 10.0607ZM10.5 9C10.5 8.60218 10.658 8.22064 10.9393 7.93934L8.11091 5.11091C7.07946 6.14236 6.5 7.54131 6.5 9H10.5ZM10.9393 7.93934C11.2206 7.65804 11.6022 7.5 12 7.5V3.5C10.5413 3.5 9.14236 4.07946 8.11091 5.11091L10.9393 7.93934ZM5 10C5.19478 10 5.35949 10.0501 5.50101 10.135L7.55899 6.70501C6.80051 6.24993 5.92522 6 5 6V10ZM4.54091 8.21135C4.3362 10.163 4.90895 12.0947 6.079 13.6049L9.241 11.1551C8.69105 10.4453 8.4238 9.53701 8.51909 8.62865L4.54091 8.21135ZM5.88617 11.4561C5.71343 11.7878 5.37786 12 5 12V16C6.94214 16 8.60657 14.8922 9.43383 13.3039L5.88617 11.4561ZM5 12C4.73478 12 4.48043 11.8946 4.29289 11.7071L1.46447 14.5355C2.40215 15.4732 3.67392 16 5 16V12ZM4.29289 11.7071C4.10536 11.5196 4 11.2652 4 11H0C0 12.3261 0.526784 13.5979 1.46447 14.5355L4.29289 11.7071ZM4 11C4 10.7348 4.10536 10.4804 4.29289 10.2929L1.46447 7.46447C0.526784 8.40215 0 9.67392 0 11H4ZM4.29289 10.2929C4.48043 10.1054 4.73478 10 5 10V6C3.67392 6 2.40215 6.52678 1.46447 7.46447L4.29289 10.2929ZM19 10C19.2652 10 19.5196 10.1054 19.7071 10.2929L22.5355 7.46447C21.5979 6.52678 20.3261 6 19 6V10ZM19.7071 10.2929C19.8946 10.4804 20 10.7348 20 11H24C24 9.67392 23.4732 8.40215 22.5355 7.46447L19.7071 10.2929ZM20 11C20 11.2652 19.8946 11.5196 19.7071 11.7071L22.5355 14.5355C23.4732 13.5979 24 12.3261 24 11H20ZM19.7071 11.7071C19.5196 11.8946 19.2652 12 19 12V16C20.3261 16 21.5979 15.4732 22.5355 14.5355L19.7071 11.7071ZM19 12C18.6221 12 18.2866 11.7878 18.1138 11.4561L14.5662 13.3039C15.3934 14.8922 17.0579 16 19 16V12ZM17.9211 13.6047C19.108 12.0725 19.6589 10.1419 19.4594 8.21411L15.4806 8.62589C15.5742 9.53046 15.3158 10.4363 14.7589 11.1553L17.9211 13.6047ZM18.499 10.135C18.6405 10.0501 18.8052 10 19 10V6C18.0748 6 17.1995 6.24993 16.441 6.70501L18.499 10.135ZM7.5 18.25C7.5 18.2329 7.52874 17.8357 8.40335 17.331C9.22468 16.8571 10.492 16.5 12 16.5V12.5C9.91804 12.5 7.93532 12.9829 6.40415 13.8665C4.92626 14.7193 3.5 16.1971 3.5 18.25H7.5ZM12 16.5C13.508 16.5 14.7753 16.8571 15.5966 17.331C16.4713 17.8357 16.5 18.2329 16.5 18.25H20.5C20.5 16.1971 19.0737 14.7193 17.5959 13.8665C16.0647 12.9829 14.082 12.5 12 12.5V16.5ZM16.5 18.25V20H20.5V18.25H16.5ZM18.5 18H5.5V22H18.5V18ZM7.5 20V18.25H3.5V20H7.5ZM2 20V18.5H-2V20H2ZM2 18.5C2 18.7869 1.81585 18.6793 2.34544 18.3393C2.82781 18.0296 3.63964 17.7252 4.71331 17.5826L4.18669 13.6174C2.70036 13.8148 1.28719 14.2654 0.184558 14.9732C-0.870853 15.6507 -2 16.8231 -2 18.5H2ZM2.93935 14.2893C2.02002 15.3489 1.5 16.7598 1.5 18.25H5.5C5.5 17.6802 5.69998 17.2111 5.96064 16.9107L2.93935 14.2893ZM1.5 18.25V20H5.5V18.25H1.5ZM3.5 18H0V22H3.5V18ZM24 18H20.5V22H24V18ZM22.5 20V18.25H18.5V20H22.5ZM22.5 18.25C22.5 16.7598 21.98 15.3489 21.0606 14.2893L18.0394 16.9107C18.3 17.2111 18.5 17.6802 18.5 18.25H22.5ZM19.2867 17.5826C20.3604 17.7252 21.1722 18.0296 21.6546 18.3393C22.1841 18.6793 22 18.7869 22 18.5H26C26 16.8231 24.8709 15.6507 23.8154 14.9732C22.7128 14.2654 21.2996 13.8148 19.8133 13.6174L19.2867 17.5826ZM22 18.5V20H26V18.5H22Z" fill="#838F9F" mask="url(#path-1-inside-1_521_374)"/>
</svg>
