<svg width="75" height="75" viewBox="0 0 75 75" fill="none" xmlns="http://www.w3.org/2000/svg">
<circle cx="37.1743" cy="37.5" r="37" fill="#FFECDF"/>
<g clip-path="url(#clip0_294_2801)">
<path d="M48.429 41.0279C47.7063 41.7335 47.2932 42.7488 47.3965 43.833C47.5514 45.6916 49.2551 47.0512 51.1137 47.0512H54.3835V49.0991C54.3835 52.6614 51.4751 55.5698 47.9128 55.5698H28.1565C24.5942 55.5698 21.6858 52.6614 21.6858 49.0991V37.5172C21.6858 33.9549 24.5942 31.0465 28.1565 31.0465H47.9128C51.4751 31.0465 54.3835 33.9549 54.3835 37.5172V39.9953H50.9072C49.9435 39.9953 49.0658 40.374 48.429 41.0279Z" stroke="#FF771D" stroke-width="4" stroke-linecap="round" stroke-linejoin="round"/>
<path d="M21.6858 39.0661V31.2015C21.6858 29.1536 22.9421 27.3294 24.8523 26.6066L38.5165 21.4438C39.0116 21.2572 39.5446 21.1936 40.0697 21.2583C40.5948 21.3231 41.0963 21.5143 41.5312 21.8155C41.9662 22.1168 42.3215 22.5191 42.5668 22.9879C42.812 23.4567 42.9399 23.978 42.9393 24.5071V31.0466M29.43 38.3606H41.4765M56.2059 41.7508V45.2959C56.2059 46.2424 55.4487 47.0168 54.485 47.0512H51.112C49.2534 47.0512 47.5497 45.6917 47.3948 43.8331C47.2915 42.7489 47.7045 41.7336 48.4273 41.028C49.0641 40.374 49.9417 39.9954 50.9055 39.9954H54.485C55.4487 40.0299 56.2059 40.8043 56.2059 41.7508Z" stroke="#FF771D" stroke-width="4" stroke-linecap="round" stroke-linejoin="round"/>
</g>
<defs>
<clipPath id="clip0_294_2801">
<rect width="41.3023" height="41.3023" fill="white" transform="translate(17.3835 17.7094)"/>
</clipPath>
</defs>
</svg>
