<svg width="74" height="74" viewBox="0 0 74 74" fill="none" xmlns="http://www.w3.org/2000/svg">
<circle cx="37" cy="37" r="37" fill="#FFC5EB"/>
<path d="M40.712 20.1097C40.7542 20.058 40.8067 20.0151 40.8664 19.9838C40.9261 19.9525 40.9917 19.9333 41.0593 19.9275C41.1268 19.9216 41.1948 19.9292 41.2593 19.9498C41.3237 19.9704 41.3831 20.0036 41.434 20.0473L43.276 21.6307L37.478 28.6996H41.32L45.532 23.5671L48.836 26.4083C48.9337 26.4925 48.9938 26.6105 49.0035 26.7373C49.0132 26.8641 48.9718 26.9895 48.888 27.0869L47.508 28.6996H51.396C51.8776 28.0122 52.0849 27.1768 51.9788 26.3507C51.8727 25.5247 51.4606 24.7649 50.82 24.2145L43.42 17.8516C43.063 17.545 42.6457 17.3127 42.1935 17.1687C41.7413 17.0247 41.2638 16.972 40.79 17.014C40.3163 17.056 39.8563 17.1917 39.4382 17.4128C39.02 17.6339 38.6525 17.9358 38.358 18.3001L29.952 28.6996H33.772L40.712 20.1097ZM44.5 42.3498C44.1022 42.3498 43.7206 42.5039 43.4393 42.7782C43.158 43.0524 43 43.4244 43 43.8123C43 44.2002 43.158 44.5722 43.4393 44.8465C43.7206 45.1208 44.1022 45.2748 44.5 45.2748H48.5C48.8978 45.2748 49.2794 45.1208 49.5607 44.8465C49.842 44.5722 50 44.2002 50 43.8123C50 43.4244 49.842 43.0524 49.5607 42.7782C49.2794 42.5039 48.8978 42.3498 48.5 42.3498H44.5ZM21 29.1871C21 28.7992 21.158 28.4272 21.4393 28.1529C21.7206 27.8787 22.1022 27.7246 22.5 27.7246H28.756L31.14 24.7995H22.5C21.3065 24.7995 20.1619 25.2618 19.318 26.0846C18.4741 26.9074 18 28.0234 18 29.1871V49.6624C18 51.3432 18.6848 52.9552 19.9038 54.1438C21.1228 55.3323 22.7761 56 24.5 56H48.5C50.2239 56 51.8772 55.3323 53.0962 54.1438C54.3152 52.9552 55 51.3432 55 49.6624V36.9872C55 35.3064 54.3152 33.6944 53.0962 32.5059C51.8772 31.3173 50.2239 30.6496 48.5 30.6496H22.5C22.1022 30.6496 21.7206 30.4955 21.4393 30.2213C21.158 29.947 21 29.575 21 29.1871ZM21 49.6624V33.3251C21.47 33.4869 21.974 33.5747 22.5 33.5747H48.5C50.432 33.5747 52 35.1035 52 36.9872V49.6624C52 50.5675 51.6312 51.4355 50.9749 52.0754C50.3185 52.7154 49.4283 53.075 48.5 53.075H24.5C23.5717 53.075 22.6815 52.7154 22.0251 52.0754C21.3687 51.4355 21 50.5675 21 49.6624Z" fill="#E11299"/>
</svg>
