<svg width="74" height="75" viewBox="0 0 74 75" fill="none" xmlns="http://www.w3.org/2000/svg">
<circle cx="37" cy="37.5" r="37" fill="#F6F6FE"/>
<g clip-path="url(#clip0_294_2561)">
<path d="M48.2547 41.0279C47.5319 41.7335 47.1189 42.7488 47.2222 43.833C47.3771 45.6916 49.0808 47.0512 50.9394 47.0512H54.2091V49.0991C54.2091 52.6614 51.3008 55.5698 47.7385 55.5698H27.9822C24.4198 55.5698 21.5115 52.6614 21.5115 49.0991V37.5172C21.5115 33.9549 24.4198 31.0465 27.9822 31.0465H47.7385C51.3008 31.0465 54.2091 33.9549 54.2091 37.5172V39.9953H50.7329C49.7691 39.9953 48.8915 40.374 48.2547 41.0279Z" stroke="#4154F1" stroke-width="4" stroke-linecap="round" stroke-linejoin="round"/>
<path d="M21.5115 39.066V31.2014C21.5115 29.1535 22.7678 27.3293 24.678 26.6065L38.3422 21.4437C38.8373 21.2571 39.3702 21.1935 39.8953 21.2582C40.4204 21.323 40.922 21.5142 41.3569 21.8154C41.7919 22.1167 42.1472 22.519 42.3925 22.9878C42.6377 23.4566 42.7655 23.9779 42.765 24.507V31.0465M29.2557 38.3605H41.3022M56.0316 41.7507V45.2958C56.0316 46.2423 55.2744 47.0167 54.3107 47.0512H50.9377C49.0791 47.0512 47.3753 45.6916 47.2205 43.833C47.1172 42.7488 47.5302 41.7335 48.253 41.0279C48.8898 40.374 49.7674 39.9953 50.7312 39.9953H54.3107C55.2744 40.0298 56.0316 40.8042 56.0316 41.7507Z" stroke="#4154F1" stroke-width="4" stroke-linecap="round" stroke-linejoin="round"/>
</g>
<defs>
<clipPath id="clip0_294_2561">
<rect width="41.3023" height="41.3023" fill="white" transform="translate(17.2092 17.7093)"/>
</clipPath>
</defs>
</svg>
